<!--?xml version="1.0" encoding="utf-8"?-->
<!-- Generator: Adobe Illustrator 18.1.1, SVG Export Plug-In . SVG Version: 6.00 Build 0)  -->
<!-- https://free-icon-rainbow.com/ -->

<svg xmlns="http://www.w3.org/2000/svg" viewBox="0 0 512 512" fill="currentColor">
<g>
	<path d="M499.243,323.25H12.704c-1.594,0-2.95,0.321-4.301,0.797c-0.242,0.082-0.481,0.161-0.719,0.242
		c-1.754,0.719-3.187,1.75-4.304,2.95c-0.161,0.238-0.399,0.398-0.559,0.637c0,0,0,0.078-0.078,0.078
		c-0.637,0.879-1.118,1.914-1.434,2.954c-0.082,0.238-0.082,0.476-0.161,0.714c-0.16,0.879-0.238,1.676-0.16,2.551
		c0.078,0.16,0,0.32,0,0.476c0,0.161,0.078,0.402,0.16,0.641c0.078,0.238,0.161,0.477,0.238,0.797
		c0.16,0.558,0.398,1.035,0.719,1.594c0.078,0.238,0.156,0.398,0.238,0.637l36.503,56.274c2.074,3.188,4.466,6.137,6.938,8.926
		c0.875,0.962,1.672,1.836,2.547,2.711c0.558,0.558,1.117,1.039,1.676,1.516c1.117,1.038,2.23,2.152,3.426,3.109
		c1.359,1.118,2.793,2.153,4.148,3.188c1.114,0.797,2.153,1.594,3.266,2.312c2.472,1.672,5.023,3.188,7.734,4.543
		c0.875,0.481,1.833,0.797,2.707,1.195c1.438,0.719,2.95,1.434,4.465,2.074c14.348-2.871,26.622-13.633,33.637-29.734
		c3.825-8.527,12.195-14.106,21.52-14.266h0.398c9.168,0,17.539,5.262,21.523,13.55c8.61,17.774,24.39,29.254,40.57,29.254
		c16.34-0.16,31.805-13.234,40.492-34.278c3.668-8.926,12.434-14.824,22.078-14.824c9.726,0,18.414,5.898,22.16,14.824
		c8.688,21.043,24.153,34.118,40.809,34.278c15.863,0,31.649-11.481,40.254-29.254c3.989-8.289,12.356-13.55,21.524-13.55h0.398
		c9.324,0.16,17.695,5.738,21.442,14.266c7.094,16.102,19.367,26.863,33.714,29.734c10.442-4.226,19.688-10.285,27.34-17.938
		c3.586-3.586,6.778-7.492,9.485-11.637l36.43-56.274C513.911,331.542,508.251,323.25,499.243,323.25z"></path>
	<path d="M195.322,171.034c15.656-3.078,28.206-15.808,31.07-31.503c5.122-28.09-19.183-52.063-47.203-46.551
		c-15.652,3.082-28.206,15.813-31.07,31.508C142.997,152.578,167.306,176.55,195.322,171.034z"></path>
	<path d="M110.067,294.586c-0.019,0.039-0.05,0.122-0.07,0.16h85.07l16.137-68.976l38.23,5.316l17.848,2.558
		l-29.942,41.055c-2.539,3.48-1.778,8.359,1.699,10.902c3.473,2.546,8.348,1.789,10.886-1.688l34.93-47.898l9.969,1.387
		c7.64,1.019,14.988-3.301,17.812-10.469c3.039-7.711-0.054-16.004-6.445-20.18l46.086-63.191l31.527-15.176l45.657-62.57
		c4.098-5.621,2.87-13.512-2.746-17.621l-19.77-14.469c-5.614-4.114-13.492-2.887-17.594,2.73l-45.91,62.926l-3.75,34.969
		l-49.895,68.418l-131.152-19.466c-8.383,0-15.809,5.414-18.34,13.45c-7.402,23.426-23.582,80.438-29.226,95.359
		c-0.41,1.035-0.786,1.906-1.082,2.473H110.067z"></path>
	<path d="M503.708,428.214c0-0.086,0-0.136,0-0.226c-11.238,13.551-32.758,20.883-58.027,20.883
		c-1.035,0-2.074,0-3.187-0.078c-16.18-0.398-31.168-6.778-43.043-17.934c-6.43-5.961-11.886-13.344-16.282-21.863
		c-0.789-1.602-1.613-3.172-2.305-4.851c-0.019,0.034-0.038,0.07-0.058,0.105c-0.027-0.058-0.058-0.113-0.086-0.175
		c-5.023,10.445-11.957,19.609-20.406,26.785c-11.558,9.961-25.906,16.02-41.371,16.02h-0.477
		c-14.586-0.161-28.137-5.977-39.453-16.02c-7.836-6.855-14.461-15.77-19.699-26.098c-1.114-2.27-2.246-4.527-3.191-6.922
		c-0.016,0.042-0.039,0.082-0.059,0.125c-0.027-0.062-0.062-0.121-0.09-0.187c-5.5,13.394-13.39,24.71-22.953,33.082
		c-11.321,10.043-24.871,15.859-39.458,16.02h-0.476c-15.466,0-29.813-6.059-41.371-16.02c-7.024-5.965-12.973-13.363-17.649-21.672
		c-0.902-1.664-1.84-3.316-2.61-5.046c-0.015,0.035-0.038,0.07-0.054,0.109c-0.027-0.062-0.062-0.117-0.094-0.175
		c-4.703,10.683-11.078,19.691-18.809,26.785c-11.879,11.156-26.782,17.535-42.965,17.934c-1.114,0.078-2.153,0.078-3.187,0.078
		c-21.45,0-40.13-5.336-52.18-15.219c-2.098-1.766-4.051-3.625-5.688-5.664v0.164c-0.046-0.058-0.113-0.106-0.16-0.164
		c0,15.223,0,12.434,0,27.578c11.637,16.898,34.594,39.774,61.215,43.84c3.031,0.48,5.98,0.718,8.93,0.718
		c19.965,0,37.422-10.461,48.52-28.375c1.59-2.503,3.046-5.16,4.378-7.953c11.969,26.098,35.293,46.77,62.199,48.125
		c0.879,0.078,1.754,0.078,2.629,0.078c21.719,0,40.922-13.625,53.383-34.707c2.359-3.926,4.57-8.043,6.457-12.515
		C267.685,492.922,290.048,512,315.837,512c0.875,0,1.754,0,2.629-0.078c22.653-1.14,42.672-16.042,55.61-36.277
		c0.504-0.774,1.058-1.489,1.547-2.282c0.305-0.512,0.546-1.054,0.843-1.57c1.52-2.59,3-5.214,4.309-7.992
		c10.531,22.73,30.031,36.324,52.711,36.324c2.949,0,5.977-0.238,9.008-0.718c26.621-4.066,49.496-26.942,61.214-43.84
		c0-8.977,0-11.676,0-15.539l0.126-11.938C503.794,428.133,503.747,428.172,503.708,428.214z"></path>
</g>
</svg>
